<svg width="124" height="40" viewBox="0 0 124 40" fill="none" xmlns="http://www.w3.org/2000/svg">
<path d="M2 33.699L2.49664 33.6439C3.106 36.4831 4.60201 38.0972 7.03948 38.0972C9.0047 38.0972 10.3605 37.0406 10.3605 35.2304C10.3605 33.4203 9.03212 32.529 6.51238 31.6683C4.02006 30.8046 2.13711 29.6897 2.13711 27.4079C2.13711 25.1261 4.04748 23.5671 6.87191 23.5671C8.58728 23.5671 9.47391 24.2072 10.001 24.2072C10.388 24.2072 10.5281 23.8458 10.4702 23.4017L10.8876 23.3466L11.9114 28.0235L11.4148 28.1369C10.6134 25.659 9.11743 24.1276 6.9298 24.1276C5.21442 24.1276 4.10537 24.9913 4.10537 26.4921C4.10537 27.7724 5.01638 28.8015 7.84385 29.7755C10.8054 30.777 12.274 32.2258 12.274 34.3422C12.274 37.0436 9.89133 38.6271 7.14917 38.6271C5.12911 38.6271 4.13279 37.7634 3.41069 37.7634C2.96585 37.7634 2.74648 38.0697 2.74648 38.5169L2.35953 38.5444L2 33.699Z" fill="black"/>
<path d="M41.481 12.1886C41.481 8.65406 46.5204 7.36154 49.9847 6.7796V5.22367C49.9847 2.61106 49.2748 1.4778 47.4924 1.4778C44.5796 1.4778 44.6832 4.74893 42.9252 4.74893C42.3219 4.74893 41.9806 4.40589 41.9806 3.82395C41.9806 2.61106 44.2627 1 47.5442 1C50.3259 1 52.1358 2.00155 52.1358 5.51158V11.4474C52.1358 13.2943 52.2912 14.1641 53.0559 14.1641C53.3454 14.1641 53.6348 14.0324 53.8969 13.769L54.1863 14.0845C53.5312 14.7951 52.7421 15.2698 51.8494 15.2698C50.329 15.2698 49.9877 13.9252 49.9877 12.6848V12.6051H49.9085C48.4643 14.2928 46.9714 15.2698 45.0031 15.2698C43.0348 15.2698 41.4871 14.1611 41.4871 12.1825L41.481 12.1886ZM49.9847 11.8731V7.28497C47.3614 7.70764 43.7387 8.9481 43.7387 11.6373C43.7387 13.0339 44.5796 13.9589 46.1274 13.9589C47.468 13.9589 48.7507 13.3004 49.9847 11.8731Z" fill="black"/>
<path d="M117.905 34.6331V29.5672C117.905 27.1935 116.802 25.953 114.94 25.953C113.444 25.953 111.738 26.7984 110.428 28.0909V34.6331C110.428 37.5612 110.638 37.9839 112.345 37.9839V38.4586H106.336V37.9839C107.857 37.9839 108.277 37.5612 108.277 34.6331V27.0097H106.361V26.535C107.75 26.535 109.404 25.8489 109.956 24.6084H110.428V27.4048H110.456C111.821 25.9806 113.972 24.6605 116.019 24.6605C118.329 24.6605 120.062 25.9775 120.062 29.5672V34.6331C120.062 37.5612 120.272 37.9839 122.003 37.9839V38.4586H116.019V37.9839C117.463 37.9839 117.908 37.5612 117.908 34.6331H117.905Z" fill="black"/>
<path d="M15.394 23.0739V23.5211L37.8432 11.8578V11.4106L15.394 23.0739Z" fill="black"/>
<path d="M57.4343 11.4137V11.8762L102.5 38.6302V38.1677L57.4343 11.4137Z" fill="black"/>
</svg>
